<svg xmlns="http://www.w3.org/2000/svg" width="21" height="21" viewBox="0 0 21 21">
  <g id="W_icon_Inspiration" transform="translate(-747.888 -198)">
    <rect id="Layer_1" data-name="Layer 1" width="21" height="21" transform="translate(747.888 198)" fill="none"/>
    <path id="패스_218" data-name="패스 218" d="M317.451,18.265a.891.891,0,0,1-.195-.147.9.9,0,0,1-.128-.163.877.877,0,0,1-.1-.256.891.891,0,0,1-.023-.2.825.825,0,0,1,.019-.179.872.872,0,0,1,.1-.27.9.9,0,0,1,.132-.17.98.98,0,0,1,.084-.074.873.873,0,0,1,.535-.182h.875V7c0-.014,0-.028,0-.041a.875.875,0,0,1,1.048-.816.864.864,0,0,1,.339.149.83.83,0,0,1,.106.09.875.875,0,0,1,.083.1.865.865,0,0,1,.158.359A.887.887,0,0,1,320.5,7v9.625h.875a.87.87,0,0,1,.474.14.9.9,0,0,1,.145.117.875.875,0,0,1-.619,1.494h-3.5a.874.874,0,0,1-.424-.11Zm-12.25,0a.891.891,0,0,1-.195-.147c-.022-.022-.042-.045-.062-.069a.875.875,0,0,1,0-1.1l.016-.019c.013-.016.028-.031.042-.045a.921.921,0,0,1,.076-.067.87.87,0,0,1,.543-.189h.875V7a.875.875,0,0,1,.875-.875.864.864,0,0,1,.147.013A.875.875,0,0,1,308.25,7v9.625h.875a.871.871,0,0,1,.511.165.9.9,0,0,1,.108.092.874.874,0,0,1,0,1.237.875.875,0,0,1-.372.221.874.874,0,0,1-.247.036h-3.5a.88.88,0,0,1-.424-.11ZM318.75,3.048a1.32,1.32,0,1,1,0,.014Zm-12.924-.685.02-.03a1.313,1.313,0,1,1,1.822,1.82l-.051.032a1.313,1.313,0,0,1-1.791-1.822Zm4.65,4.07A3.827,3.827,0,0,0,313.5,7.959h.034a3.825,3.825,0,0,0,3.91-3.136l1.722.314a5.687,5.687,0,0,1-10.045,2.4,7.544,7.544,0,0,1-.947-1.489,5.683,5.683,0,0,1-.233-.549c-.027-.075-.051-.146-.069-.212v0a1.174,1.174,0,0,1-.046-.307h1.75a.82.82,0,0,0-.015-.153c0,.012.012.04.027.083.032.089.086.221.163.382A5.833,5.833,0,0,0,310.476,6.433Zm-.917-1.607v0C309.555,4.807,309.553,4.8,309.559,4.826Z" transform="translate(444.888 198.438)" fill="#fff" fill-rule="evenodd"/>
  </g>
</svg>
