<svg xmlns="http://www.w3.org/2000/svg" width="21" height="21" viewBox="0 0 21 21">
  <g id="W_icon_Wonderbox" transform="translate(-563 -198)">
    <rect id="사각형_254" data-name="사각형 254" width="21" height="21" transform="translate(563 198)" fill="none"/>
    <path id="패스_221" data-name="패스 221" d="M106.6,16.974a1.175,1.175,0,0,0,.108-.123l0-.009a8.148,8.148,0,0,0,1.16.691l-.643,1.636a.9.9,0,0,0,1.675.659l.664-1.69a8.118,8.118,0,0,0,3.824-.024l.642,1.7a.9.9,0,1,0,1.684-.635l-.638-1.692a8.119,8.119,0,0,0,1.172-.72,1.3,1.3,0,0,0,.161.2,1.426,1.426,0,0,0,.952.438,1.294,1.294,0,0,0,.952-.438,1.372,1.372,0,0,0,0-1.9l-.073-.056c-.043-.033-.085-.066-.127-.095a8.227,8.227,0,0,0,1.456-3.371.979.979,0,0,0,.133.006,1.39,1.39,0,1,0,0-2.78h-.1a8.121,8.121,0,0,0-1.357-3.363.926.926,0,0,0,.071-.082,1.456,1.456,0,0,0-.074-1.9,1.026,1.026,0,0,0-.878-.438,1.187,1.187,0,0,0-.952.438q-.028.029-.054.057A8.268,8.268,0,0,0,112.818,2V1.893A1.347,1.347,0,0,0,111.428.5a1.392,1.392,0,0,0-1.388,1.393v.118a8.109,8.109,0,0,0-3.411,1.456l-.033-.035a1,1,0,0,0-.952-.438,1.187,1.187,0,0,0-.952.438,1.372,1.372,0,0,0,0,1.9l.052.05a8.29,8.29,0,0,0-1.4,3.393H103.3a1.39,1.39,0,0,0-1.39,1.39,1.287,1.287,0,0,0,1.39,1.322h.037a8.132,8.132,0,0,0,1.454,3.475.948.948,0,0,0-.1.112,1.372,1.372,0,0,0,0,1.9,1.426,1.426,0,0,0,.952.438,1.294,1.294,0,0,0,.952-.438Zm4.832,0a6.856,6.856,0,0,1-1.352-.142l.579-1.47.011-.03.791-2.241.088,0,.792,2.243.007.018.552,1.463A6.813,6.813,0,0,1,111.427,16.974Zm-1.69-4.419a2.87,2.87,0,0,1-.381-.321,2.928,2.928,0,0,1,2.07-5,2.892,2.892,0,0,1,2.928,2.928,2.922,2.922,0,0,1-1.121,2.3l.8,2.257.555,1.473c.2-.1.39-.217.577-.339a6.809,6.809,0,1,0-10.53-6.144,1.261,1.261,0,0,1,.057.376,1.511,1.511,0,0,1-.062.438,6.848,6.848,0,0,0,3.747,5.71l.6-1.52Zm2.5-3.682a1.46,1.46,0,0,0-.813-.247,1.519,1.519,0,0,0-1.464,1.464,1.464,1.464,0,1,0,2.277-1.217Z" transform="translate(462.001 198.051)" fill="#fff" fill-rule="evenodd"/>
  </g>
</svg>
