<svg xmlns="http://www.w3.org/2000/svg" width="21" height="21" viewBox="0 0 21 21">
  <g id="W_icon_Cimer" transform="translate(-831.419 -198)">
    <rect id="Layer_1" data-name="Layer 1" width="21" height="21" transform="translate(831.419 198)" fill="#857b71" opacity="0"/>
    <path id="패스_213" data-name="패스 213" d="M10.4,15.474a.7.7,0,0,1-.7-.7V3.458a2.558,2.558,0,1,1,5.116,0V5.784a.7.7,0,1,1-1.4,0V3.458a1.163,1.163,0,1,0-2.326,0V14.776A.7.7,0,0,1,10.4,15.474Z" transform="translate(829.622 198.221)" fill="#fff"/>
    <path id="패스_214" data-name="패스 214" d="M19.1,14.776a.7.7,0,0,1-.7-.7V3.458A2.581,2.581,0,0,1,20.958.9a2.515,2.515,0,0,1,2.481,2.558V5.784a.7.7,0,1,1-1.4,0V3.458a1.163,1.163,0,1,0-2.326,0v10.62A.593.593,0,0,1,19.1,14.776Z" transform="translate(827.666 198.221)" fill="#fff"/>
    <path id="패스_215" data-name="패스 215" d="M17.064,10.9H10.4a.7.7,0,0,1,0-1.4h6.667a.7.7,0,0,1,0,1.4Z" transform="translate(829.622 196.287)" fill="#fff"/>
    <path id="패스_216" data-name="패스 216" d="M17.064,14.5H10.4a.7.7,0,0,1,0-1.4h6.667a.7.7,0,0,1,0,1.4Z" transform="translate(829.622 195.478)" fill="#fff"/>
    <path id="패스_212" data-name="패스 212" d="M10.293,19.88a6.574,6.574,0,0,1-3.256-.853,5.282,5.282,0,0,0-5.039,0,.649.649,0,0,1-.93-.233.649.649,0,0,1,.233-.93,6.918,6.918,0,0,1,6.512,0,5.282,5.282,0,0,0,5.039,0,6.918,6.918,0,0,1,6.512,0,.678.678,0,0,1-.7,1.163,5.282,5.282,0,0,0-5.039,0A6.871,6.871,0,0,1,10.293,19.88Z" transform="translate(831.588 194.59)" fill="#fff"/>
    <path id="패스_217" data-name="패스 217" d="M10.293,24.28a6.574,6.574,0,0,1-3.256-.853,5.282,5.282,0,0,0-5.039,0,.649.649,0,0,1-.93-.233.649.649,0,0,1,.233-.93,6.918,6.918,0,0,1,6.512,0,5.282,5.282,0,0,0,5.039,0,6.918,6.918,0,0,1,6.512,0,.678.678,0,0,1-.7,1.163,5.918,5.918,0,0,0-5.116,0A6.362,6.362,0,0,1,10.293,24.28Z" transform="translate(831.588 193.601)" fill="#fff"/>
  </g>
</svg>
