<svg xmlns="http://www.w3.org/2000/svg" width="21.046" height="19.946" viewBox="0 0 21.046 19.946">
  <g id="그룹_8" data-name="그룹 8" transform="translate(-505.523 -262.865)">
    <path id="패스_5" data-name="패스 5" d="M525.069,266.98v14.331H507.023V266.98h18.046m0-1.5H507.023a1.5,1.5,0,0,0-1.5,1.5v14.331a1.5,1.5,0,0,0,1.5,1.5h18.046a1.5,1.5,0,0,0,1.5-1.5V266.98a1.5,1.5,0,0,0-1.5-1.5Z" fill="#998675"/>
    <g id="그룹_7" data-name="그룹 7">
      <g id="그룹_5" data-name="그룹 5">
        <path id="패스_6" data-name="패스 6" d="M512.147,272.639h-1.281a.8.8,0,0,1,0-1.592h1.281a.8.8,0,1,1,0,1.592Z" fill="#998675"/>
        <path id="패스_7" data-name="패스 7" d="M516.686,272.639h-1.279a.8.8,0,1,1,0-1.592h1.279a.8.8,0,1,1,0,1.592Z" fill="#998675"/>
        <path id="패스_8" data-name="패스 8" d="M521.226,272.639h-1.28a.8.8,0,0,1,0-1.592h1.28a.8.8,0,0,1,0,1.592Z" fill="#998675"/>
        <path id="패스_9" data-name="패스 9" d="M512.147,275.864h-1.281a.8.8,0,0,1,0-1.592h1.281a.8.8,0,1,1,0,1.592Z" fill="#998675"/>
        <path id="패스_10" data-name="패스 10" d="M516.686,275.864h-1.279a.8.8,0,1,1,0-1.592h1.279a.8.8,0,1,1,0,1.592Z" fill="#998675"/>
        <path id="패스_11" data-name="패스 11" d="M521.226,275.864h-1.28a.8.8,0,0,1,0-1.592h1.28a.8.8,0,0,1,0,1.592Z" fill="#998675"/>
        <path id="패스_12" data-name="패스 12" d="M512.147,279.09h-1.281a.8.8,0,0,1,0-1.593h1.281a.8.8,0,0,1,0,1.593Z" fill="#998675"/>
        <path id="패스_13" data-name="패스 13" d="M516.686,279.09h-1.279a.8.8,0,1,1,0-1.593h1.279a.8.8,0,0,1,0,1.593Z" fill="#998675"/>
        <path id="패스_14" data-name="패스 14" d="M521.226,279.09h-1.28a.8.8,0,0,1,0-1.593h1.28a.8.8,0,0,1,0,1.593Z" fill="#998675"/>
      </g>
      <g id="그룹_6" data-name="그룹 6">
        <path id="패스_15" data-name="패스 15" d="M511.8,268.613a.8.8,0,0,1-.8-.8v-4.156a.8.8,0,1,1,1.592,0v4.156A.8.8,0,0,1,511.8,268.613Z" fill="#998675"/>
        <path id="패스_16" data-name="패스 16" d="M520.292,268.613a.8.8,0,0,1-.8-.8v-4.156a.8.8,0,0,1,1.593,0v4.156A.8.8,0,0,1,520.292,268.613Z" fill="#998675"/>
      </g>
    </g>
  </g>
</svg>
