<svg xmlns="http://www.w3.org/2000/svg" width="21" height="21" viewBox="0 0 21 21">
  <g id="W_icon_Hospitality" transform="translate(-470 -199)">
    <rect id="Layer_1" data-name="Layer 1" width="21" height="21" transform="translate(470 199)" fill="#857b71" opacity="0"/>
    <g id="그룹_615" data-name="그룹 615" transform="translate(0.362 1.131)">
      <path id="패스_222" data-name="패스 222" d="M12.6,7.77a.839.839,0,0,0,1.186,0L15.24,6.316a7,7,0,1,1-1.193-1.18L12.6,6.583A.839.839,0,0,0,12.6,7.77Zm2.693-3.879a8.728,8.728,0,1,0,1.192,1.181l2.641-2.641a.839.839,0,0,0-1.186-1.187ZM9.75,8.881a1.75,1.75,0,1,1-1.237.513A1.75,1.75,0,0,1,9.75,8.881Z" transform="translate(469.638 197.867)" fill="#fff" fill-rule="evenodd"/>
    </g>
  </g>
</svg>
