<svg xmlns="http://www.w3.org/2000/svg" width="21" height="21" viewBox="0 0 21 21">
  <g id="W_icon_Casino" transform="translate(-362.465 -197.593)">
    <rect id="Layer_1" data-name="Layer 1" width="21" height="21" transform="translate(362.465 197.593)" fill="#fff" opacity="0"/>
    <path id="Rounded_Rectangle_10" data-name="Rounded Rectangle 10" d="M1.692,1.692V15.231H15.231V1.692H1.692M1.692,0H15.231a1.692,1.692,0,0,1,1.692,1.692V15.231a1.692,1.692,0,0,1-1.692,1.692H1.692A1.692,1.692,0,0,1,0,15.231V1.692A1.692,1.692,0,0,1,1.692,0Z" transform="translate(364.503 199.539)" fill="#fff"/>
    <path id="Ellipse_12" data-name="Ellipse 12" d="M13.115,14.52a1.286,1.286,0,1,1,1.269-1.286A1.278,1.278,0,0,1,13.115,14.52Zm-4.23-4.282a1.286,1.286,0,1,1,1.269-1.285A1.278,1.278,0,0,1,8.885,10.238Z" transform="translate(361.965 197)" fill="#fff"/>
  </g>
</svg>
