<svg xmlns="http://www.w3.org/2000/svg" width="21" height="21" viewBox="0 0 21 21">
  <g id="그룹_2" data-name="그룹 2" transform="translate(-770 -457)">
    <rect id="사각형_1" data-name="사각형 1" width="21" height="21" transform="translate(770 457)" fill="none"/>
    <path id="_221115_기타_크리스마스아이콘_21x21" data-name="221115_기타_크리스마스아이콘_21x21" d="M20.86,4.27a.969.969,0,0,0-.89-.47,2.315,2.315,0,0,1-2.04-1.39.94.94,0,0,0-.74-.49.986.986,0,0,0-.84.33,2.149,2.149,0,0,1-2.51.7.968.968,0,0,0-1.27.62,4.026,4.026,0,0,1-2.07,1.6A3.968,3.968,0,0,1,8.43,3.58a.957.957,0,0,0-.49-.59,1,1,0,0,0-.78-.04,2.146,2.146,0,0,1-2.51-.7.986.986,0,0,0-.84-.33.964.964,0,0,0-.74.49A2.349,2.349,0,0,1,1.03,3.8a.979.979,0,0,0-.89.47.993.993,0,0,0,0,1A2.617,2.617,0,0,1,.39,7.75a1.011,1.011,0,0,0-.01.8.985.985,0,0,0,.6.53,2.036,2.036,0,0,1,1.49,1.66.982.982,0,0,0,.96.84,1.047,1.047,0,0,0,.3-.05c.1-.03.23-.07.38-.1a3.706,3.706,0,0,0-.18,1.16,3.875,3.875,0,0,0,2.86,3.73,3.855,3.855,0,0,0,7.41-.02,3.847,3.847,0,0,0,2.59-4.89,2.92,2.92,0,0,1,.49.12,1.047,1.047,0,0,0,.3.05.946.946,0,0,0,.51-.15.973.973,0,0,0,.45-.69,2.036,2.036,0,0,1,1.49-1.66.994.994,0,0,0,.59-.53.97.97,0,0,0-.01-.8,2.622,2.622,0,0,1,.25-2.48A.993.993,0,0,0,20.86,4.27ZM10.38,7.6l.01-.05V7.49a1.31,1.31,0,0,1,.12-.55,1.128,1.128,0,0,1,.12.54v.06l.01.06a3.573,3.573,0,0,1-.12,1.51A3.234,3.234,0,0,1,10.38,7.6ZM5.01,9.89a5,5,0,0,0-1.2.08,3.458,3.458,0,0,0-1.88-2.1,3.922,3.922,0,0,0-.16-2.66A3.719,3.719,0,0,0,4,3.69a3.568,3.568,0,0,0,3.22.78,5.2,5.2,0,0,0,2,1.73A2.672,2.672,0,0,0,8.9,7.51a1.7,1.7,0,0,0-.01.22,7.179,7.179,0,0,0-4.44-2A.735.735,0,1,0,4.42,7.2,5.562,5.562,0,0,1,7.7,8.66a3.82,3.82,0,0,0-1.14.26A4.035,4.035,0,0,0,5.01,9.89Zm1.65,4.8a2.386,2.386,0,0,1-1.27-2.1,2.441,2.441,0,0,1,.29-1.14l.23-.3a2.734,2.734,0,0,1,1.07-.8,2.3,2.3,0,0,1,.79-.14,2.386,2.386,0,0,1,1.81.83,2.7,2.7,0,0,1,.27.39c-.15.03-.3.06-.45.1A3.845,3.845,0,0,0,6.66,14.69Zm5.89,1.71A2.378,2.378,0,0,1,8.1,15.23a2.825,2.825,0,0,1,.02-.29A2.382,2.382,0,0,1,9.3,13.16a2.211,2.211,0,0,1,.84-.29,1.94,1.94,0,0,1,.34-.02,2.611,2.611,0,0,1,1.12.28,2.387,2.387,0,0,1,1.25,1.82,2.231,2.231,0,0,1-.3,1.45Zm1.75-1.75a3.866,3.866,0,0,0-2.82-3.15,3.29,3.29,0,0,0-.43-.09c.08-.13.17-.26.26-.38a2.382,2.382,0,1,1,2.99,3.62Zm4.77-6.78a3.418,3.418,0,0,0-1.87,2.1,4.8,4.8,0,0,0-.9-.09,2.114,2.114,0,0,0-.35.02,4.5,4.5,0,0,0-1.4-.93,3.948,3.948,0,0,0-1.29-.3,5.5,5.5,0,0,1,3.28-1.45.74.74,0,0,0-.02-1.48H16.5a7.124,7.124,0,0,0-4.39,1.97c0-.06-.01-.12-.01-.19a2.672,2.672,0,0,0-.32-1.31,5.2,5.2,0,0,0,2-1.73A3.568,3.568,0,0,0,17,3.7a3.762,3.762,0,0,0,2.23,1.52A3.83,3.83,0,0,0,19.07,7.87Z" transform="translate(769.995 457.085)" fill="#fff"/>
  </g>
</svg>
